<svg width="1152" height="314" viewBox="0 0 1152 314" fill="none" xmlns="http://www.w3.org/2000/svg">
<path d="M0 17C0 7.61117 7.61116 0 17 0H1135C1144.39 0 1152 7.61116 1152 17V297C1152 306.389 1144.39 314 1135 314H17C7.61113 314 0 306.389 0 297V17Z" fill="url(#paint0_linear_36_10)"/>
<g clip-path="url(#clip0_36_10)">
<path d="M69.1657 37.8655C68.4649 37.8494 67.8248 38.2664 67.5627 38.9148C67.3005 39.5632 67.471 40.3079 67.9861 40.7833L74.4603 46.7324L74.2385 55.5222C74.2223 56.2229 74.6395 56.863 75.2879 57.1251C75.9363 57.3873 76.681 57.2169 77.1564 56.7019L83.1055 50.2275L91.8952 50.4492C92.596 50.4653 93.2361 50.0483 93.4982 49.3999C93.7604 48.7515 93.5899 48.0069 93.0748 47.5314L86.6006 41.5823L86.8224 32.7925C86.8385 32.0918 86.4214 31.4517 85.773 31.1896C85.1246 30.9274 84.3798 31.0978 83.9045 31.6129L77.9554 38.0872L69.1657 37.8655ZM53.2815 29.5738C53.2416 28.6618 52.6682 27.8642 51.8307 27.5256C50.9932 27.1871 50.0266 27.3621 49.3641 27.9901L36.0063 40.5059L17.7291 41.3991C16.8171 41.4391 16.0196 42.0124 15.6755 42.8634C15.3314 43.7146 15.512 44.6675 16.1399 45.3301L28.6747 58.6799L29.5544 76.9516C29.5944 77.8633 30.1677 78.6611 31.0052 78.9997C31.8427 79.3383 32.8094 79.163 33.4718 78.5353L46.8215 66.0006L65.1121 65.1127C66.0243 65.0727 66.8218 64.4992 67.1603 63.6618C67.4989 62.8243 67.324 61.8578 66.6959 61.1952L54.1692 47.8644L53.2815 29.5738ZM60.4802 81.313L51.6904 81.0916C50.9896 81.0754 50.3496 81.4922 50.0875 82.1406C49.8254 82.789 49.9958 83.5338 50.5109 84.0092L56.9852 89.9582L56.7632 98.7482C56.7471 99.449 57.1643 100.089 57.8127 100.351C58.4611 100.613 59.2058 100.443 59.6812 99.9279L65.6303 93.4533L74.42 93.6751C75.1208 93.6912 75.7609 93.2741 76.0231 92.6257C76.2852 91.9773 76.1146 91.2329 75.5995 90.7575L69.1254 84.8081L69.3472 76.0184C69.3633 75.3177 68.9462 74.6775 68.2978 74.4154C67.6495 74.1532 66.9046 74.3237 66.4293 74.8388L60.4802 81.313Z" fill="white" fill-opacity="0.5"/>
</g>
<g clip-path="url(#clip1_36_10)">
<path d="M1068.92 203.509C1068.4 203.983 1068.23 204.727 1068.49 205.376C1068.75 206.025 1069.38 206.445 1070.08 206.431L1078.88 206.243L1084.8 212.739C1085.27 213.256 1086.02 213.429 1086.67 213.17C1087.32 212.91 1087.74 212.271 1087.72 211.571L1087.53 202.78L1094.03 196.855C1094.55 196.382 1094.72 195.638 1094.46 194.988C1094.2 194.339 1093.56 193.92 1092.86 193.933L1084.07 194.122L1078.15 187.625C1077.67 187.108 1076.93 186.935 1076.28 187.195C1075.63 187.455 1075.21 188.093 1075.22 188.794L1075.41 197.584L1068.92 203.509ZM1051.71 208.522C1051.05 207.891 1050.09 207.712 1049.25 208.048C1048.41 208.383 1047.83 209.179 1047.79 210.09L1046.81 228.37L1034.24 241.667C1033.61 242.327 1033.43 243.293 1033.77 244.145C1034.12 244.998 1034.91 245.56 1035.82 245.604L1054.1 246.56L1067.39 259.137C1068.05 259.767 1069.01 259.946 1069.85 259.611C1070.69 259.275 1071.27 258.479 1071.31 257.568L1072.27 239.281L1084.85 225.978C1085.48 225.318 1085.66 224.352 1085.33 223.513C1084.99 222.674 1084.2 222.098 1083.28 222.055L1065.02 221.106L1051.71 208.522ZM1092.73 240.875L1086.23 246.801C1085.71 247.274 1085.54 248.018 1085.8 248.667C1086.06 249.317 1086.7 249.736 1087.4 249.723L1096.19 249.534L1102.11 256.031C1102.59 256.548 1103.33 256.72 1103.98 256.461C1104.63 256.201 1105.05 255.563 1105.04 254.862L1104.85 246.071L1111.34 240.146C1111.86 239.673 1112.03 238.929 1111.77 238.279C1111.51 237.63 1110.87 237.211 1110.17 237.224L1101.38 237.413L1095.46 230.916C1094.99 230.399 1094.24 230.226 1093.59 230.486C1092.94 230.746 1092.52 231.384 1092.54 232.085L1092.73 240.875Z" fill="white" fill-opacity="0.5"/>
</g>
<defs>
<linearGradient id="paint0_linear_36_10" x1="-6.12772e-07" y1="5.59652" x2="1152" y2="308.404" gradientUnits="userSpaceOnUse">
<stop stop-color="#BA5EF3"/>
<stop offset="1" stop-color="#FF8718"/>
</linearGradient>
<clipPath id="clip0_36_10">
<rect width="74.5996" height="74.5996" fill="white" transform="translate(29.5797 8.47076) rotate(22.0123)"/>
</clipPath>
<clipPath id="clip1_36_10">
<rect width="74.5996" height="74.5996" fill="white" transform="translate(1020 209.701) rotate(-21.7972)"/>
</clipPath>
</defs>
</svg>
